# xmcd
# 
# Track frame offsets:
#     150
#     16039
#     29515
#     46603
#     66092
#     89968
#     108047
#     123022
#     140590
#     156785
#     172097
#     188846
#     202826
#     219247
#     235207
# 
# Disc length: 3352
# 
# Revision: 2
# Processed by: cddbd v1.5.2PL0 Copyright (c) Steve Scherf et al.
# Submitted via: fre:ac v1.0.27
# 
DISCID=c20d160f
DTITLE=八代亜紀 - 八代亜紀 ベスト CD2
DYEAR=2015
DGENRE=演歌
TTITLE0=雨の慕情
TTITLE1=もう一度逢いたい
TTITLE2=恋歌
TTITLE3=愛されてみたい
TTITLE4=哀歌
TTITLE5=おんな橋
TTITLE6=涙の朝
TTITLE7=女だから
TTITLE8=港町絶唱
TTITLE9=女の街角
TTITLE10=あなたに逢いたい
TTITLE11=女心は港の灯
TTITLE12=うしろ影
TTITLE13=愛していません
TTITLE14=愛の終着駅
EXTD=
EXTT0=
EXTT1=
EXTT2=
EXTT3=
EXTT4=
EXTT5=
EXTT6=
EXTT7=
EXTT8=
EXTT9=
EXTT10=
EXTT11=
EXTT12=
EXTT13=
EXTT14=
PLAYORDER=
